<mxfile>
    <diagram id="nmVdRzCMXVpeTzNxSv2q" name="Page-1">
        <mxGraphModel dx="996" dy="822" grid="1" gridSize="10" guides="1" tooltips="1" connect="1" arrows="1" fold="1" page="1" pageScale="1" pageWidth="850" pageHeight="1100" math="0" shadow="0">
            <root>
                <mxCell id="0"/>
                <mxCell id="1" parent="0"/>
                <mxCell id="57" value="" style="rounded=0;whiteSpace=wrap;html=1;strokeColor=none;fillColor=none;sketch=0;" parent="1" vertex="1">
                    <mxGeometry width="780" height="420" as="geometry"/>
                </mxCell>
                <mxCell id="53" value="" style="shadow=0;glass=0;fillColor=none;whiteSpace=wrap;html=1;labelBorderColor=none;labelBackgroundColor=none;sketch=1;" parent="1" vertex="1">
                    <mxGeometry x="560" y="20" width="200" height="380" as="geometry"/>
                </mxCell>
                <mxCell id="49" value="" style="whiteSpace=wrap;html=1;shadow=0;glass=0;fillColor=none;sketch=1;dashed=1;dashPattern=1 1;" parent="1" vertex="1">
                    <mxGeometry x="20" y="20" width="199" height="380" as="geometry"/>
                </mxCell>
                <mxCell id="65" style="edgeStyle=orthogonalEdgeStyle;curved=1;rounded=0;orthogonalLoop=1;jettySize=auto;html=1;exitX=1;exitY=0.5;exitDx=0;exitDy=0;entryX=0;entryY=0.5;entryDx=0;entryDy=0;sketch=0;" edge="1" parent="1" source="35" target="62">
                    <mxGeometry relative="1" as="geometry"/>
                </mxCell>
                <mxCell id="66" style="edgeStyle=orthogonalEdgeStyle;curved=1;rounded=0;orthogonalLoop=1;jettySize=auto;html=1;exitX=1;exitY=0.5;exitDx=0;exitDy=0;entryX=0;entryY=0.25;entryDx=0;entryDy=0;sketch=0;" edge="1" parent="1" source="35" target="63">
                    <mxGeometry relative="1" as="geometry"/>
                </mxCell>
                <mxCell id="67" style="edgeStyle=orthogonalEdgeStyle;curved=1;rounded=0;orthogonalLoop=1;jettySize=auto;html=1;exitX=1;exitY=0.5;exitDx=0;exitDy=0;entryX=0;entryY=0.5;entryDx=0;entryDy=0;sketch=0;" edge="1" parent="1" source="35" target="64">
                    <mxGeometry relative="1" as="geometry"/>
                </mxCell>
                <mxCell id="75" style="edgeStyle=orthogonalEdgeStyle;curved=1;rounded=0;orthogonalLoop=1;jettySize=auto;html=1;entryX=1;entryY=0.5;entryDx=0;entryDy=0;sketch=0;" edge="1" parent="1" source="35" target="42">
                    <mxGeometry relative="1" as="geometry"/>
                </mxCell>
                <mxCell id="76" style="edgeStyle=orthogonalEdgeStyle;curved=1;rounded=0;orthogonalLoop=1;jettySize=auto;html=1;exitX=0;exitY=0.5;exitDx=0;exitDy=0;entryX=1;entryY=0.5;entryDx=0;entryDy=0;sketch=0;" edge="1" parent="1" source="35" target="73">
                    <mxGeometry relative="1" as="geometry"/>
                </mxCell>
                <mxCell id="77" style="edgeStyle=orthogonalEdgeStyle;curved=1;rounded=0;orthogonalLoop=1;jettySize=auto;html=1;exitX=0;exitY=0.5;exitDx=0;exitDy=0;entryX=1;entryY=0.5;entryDx=0;entryDy=0;sketch=0;" edge="1" parent="1" source="35" target="72">
                    <mxGeometry relative="1" as="geometry"/>
                </mxCell>
                <mxCell id="78" style="edgeStyle=orthogonalEdgeStyle;curved=1;rounded=0;orthogonalLoop=1;jettySize=auto;html=1;exitX=0;exitY=0.5;exitDx=0;exitDy=0;entryX=1;entryY=0.5;entryDx=0;entryDy=0;sketch=0;" edge="1" parent="1" source="35" target="71">
                    <mxGeometry relative="1" as="geometry"/>
                </mxCell>
                <mxCell id="35" value="SRE" style="whiteSpace=wrap;html=1;fillColor=#F45B69;sketch=1;" parent="1" vertex="1">
                    <mxGeometry x="325" y="180" width="150" height="60" as="geometry"/>
                </mxCell>
                <mxCell id="39" value="Monitoring" style="whiteSpace=wrap;html=1;fillColor=#d5e8d4;strokeColor=#82b366;sketch=1;" parent="1" vertex="1">
                    <mxGeometry x="610" y="81.25" width="100" height="38.75" as="geometry"/>
                </mxCell>
                <mxCell id="42" value="Consultation&amp;nbsp;&lt;br&gt;capacity" style="whiteSpace=wrap;html=1;fillColor=#dae8fc;strokeColor=#6c8ebf;sketch=1;" parent="1" vertex="1">
                    <mxGeometry x="69.5" y="81.25" width="100" height="38.75" as="geometry"/>
                </mxCell>
                <mxCell id="48" value="Support" style="text;html=1;strokeColor=none;fillColor=none;align=center;verticalAlign=middle;whiteSpace=wrap;shadow=0;glass=0;sketch=1;" parent="1" vertex="1">
                    <mxGeometry x="99.5" y="30" width="40" height="20" as="geometry"/>
                </mxCell>
                <mxCell id="52" value="Oparation" style="text;html=1;strokeColor=none;fillColor=none;align=center;verticalAlign=middle;whiteSpace=wrap;shadow=0;glass=0;sketch=1;" parent="1" vertex="1">
                    <mxGeometry x="640" y="30" width="40" height="20" as="geometry"/>
                </mxCell>
                <mxCell id="46" style="edgeStyle=orthogonalEdgeStyle;orthogonalLoop=1;jettySize=auto;html=1;entryX=0;entryY=0.5;entryDx=0;entryDy=0;exitX=1;exitY=0.5;exitDx=0;exitDy=0;curved=1;sketch=0;" parent="1" source="35" target="39" edge="1">
                    <mxGeometry x="20" y="20" as="geometry"/>
                </mxCell>
                <mxCell id="62" value="CI/CD" style="whiteSpace=wrap;html=1;fillColor=#d5e8d4;strokeColor=#82b366;sketch=1;" vertex="1" parent="1">
                    <mxGeometry x="610" y="158.75" width="100" height="38.75" as="geometry"/>
                </mxCell>
                <mxCell id="63" value="LCM" style="whiteSpace=wrap;html=1;fillColor=#d5e8d4;strokeColor=#82b366;sketch=1;" vertex="1" parent="1">
                    <mxGeometry x="610" y="240" width="100" height="38.75" as="geometry"/>
                </mxCell>
                <mxCell id="64" value="Incident" style="whiteSpace=wrap;html=1;fillColor=#d5e8d4;strokeColor=#82b366;sketch=1;" vertex="1" parent="1">
                    <mxGeometry x="610" y="316.88" width="100" height="38.75" as="geometry"/>
                </mxCell>
                <mxCell id="71" value="Consultation&amp;nbsp;&lt;br&gt;arcitect" style="whiteSpace=wrap;html=1;fillColor=#dae8fc;strokeColor=#6c8ebf;sketch=1;" vertex="1" parent="1">
                    <mxGeometry x="69.5" y="158.75" width="100" height="38.75" as="geometry"/>
                </mxCell>
                <mxCell id="72" value="Change setting request&amp;nbsp;" style="whiteSpace=wrap;html=1;fillColor=#dae8fc;strokeColor=#6c8ebf;sketch=1;" vertex="1" parent="1">
                    <mxGeometry x="69.5" y="240" width="100" height="38.75" as="geometry"/>
                </mxCell>
                <mxCell id="73" value="Trouble shooting" style="whiteSpace=wrap;html=1;fillColor=#dae8fc;strokeColor=#6c8ebf;sketch=1;" vertex="1" parent="1">
                    <mxGeometry x="69.5" y="316.88" width="100" height="38.75" as="geometry"/>
                </mxCell>
            </root>
        </mxGraphModel>
    </diagram>
</mxfile>